<svg xmlns="http://www.w3.org/2000/svg" viewBox="0 0 13 13">
	<path d="M0 3 0 10Q0 13 3 13L10 13Q13 13 13 10L13 3Q13 0 10 0L3 0Q0 0 0 3" fill="#281a3e"/>
	<path d="M0 3 0 10Q0 13 3 13L10 13C13 13 13 11 10 11L4 11C2 11 2 11 2 9L2 3C2 0 0 0 0 3" fill="#b396e4"/>
	<path d="M2.682 8.313C3.006 6.687 3.154 5.298 4.603 3.361 5.785 2.017 6.494 2.135 7.681 3.654 8.283 4.563 8.395 5.081 9.052 6.634 9.923 9.008 10.577 8.887 11.402 6.244 11.7 5.214 12.594 5.443 12.407 6.51 11.846 8.697 11.284 9.761 9.687 9.407 7.766 8.667 7.145 2.342 5.429 4.088 4.253 5.347 4.113 7.11 3.876 8.355 3.805 9.614 2.416 9.732 2.682 8.313" stroke="#fe6b8b" stroke-width="0.4" fill="#fe6b8b"/>
</svg>